<svg width="475" height="122" viewBox="0 0 475 122" fill="none" xmlns="http://www.w3.org/2000/svg">
<path d="M471.392 102.088C470.062 100.386 468.69 98.743 467.275 97.1593C464.52 94.0522 461.599 91.1542 458.529 88.4829C452.307 83.0218 445.549 78.8372 438.627 75.069C435.56 73.3897 432.324 71.2326 429.169 69.8605C401.898 58.0235 397.828 56.7811 376.166 53.6409C368.41 51.4223 360.422 49.4973 352.842 47.6746C340.177 39.4829 306.73 18.5805 283.575 10.7438C281.511 10.0611 279.493 9.21464 277.493 8.2999C274.152 6.77762 266.152 4.04023 248.402 1.30283C213.883 -4.06273 177.072 8.35452 143.042 16.5599C123.601 21.2496 101.642 22.7924 82.8369 30.4789C82.8369 30.4789 61.6878 39.1075 41.0403 45.497C20.3927 51.8865 6.34578 48.1047 6.34578 48.1047C15.378 59.5867 13.8736 71.0961 5.69854 81.2333C0.293196 87.9368 -0.219933 98.941 0.0599556 105.631C0.584746 97.1047 5.69854 88.0597 5.69854 88.0597C27.6464 66.9866 13.4421 52.8764 13.4421 52.8764C41.3027 54.9584 60.7899 50.0161 70.8017 46.4254C70.8017 46.4254 82.3238 61.2865 143.578 69.8468C197.673 77.4037 257.51 66.1742 311.587 60.6039C320.917 60.8087 330.246 61.2046 339.576 61.7234C350.323 62.3173 361.075 63.0887 371.804 64.1331C380.679 65.0137 389.583 66.0036 398.393 67.7033C401.395 68.2406 404.367 68.9768 407.297 69.9083C408.294 70.2428 409.251 70.8025 410.248 71.1097C415.408 72.7412 420.522 74.7618 425.49 76.6937C435.257 80.4824 445.158 84.7421 454.155 90.9473C461.425 95.6352 468.373 100.976 474.937 106.921C473.643 105.733 472.54 103.562 471.392 102.088ZM158.185 52.6238C125.951 31.6189 194.337 18.1095 194.337 18.1095C275.855 7.58313 293.15 42.8689 293.15 42.8689L313.424 42.4661C270.764 46.7258 185.002 70.0994 158.185 52.6238Z" fill="url(#paint0_linear_148_37)"/>
<path d="M330.169 42.1316L313.423 42.4661C320.245 41.7835 325.954 41.5855 330.169 42.1316Z" fill="url(#paint1_linear_148_37)"/>
<path d="M49.0508 121.775C49.0508 121.775 84.2584 71.3692 131.699 117.311C131.699 117.311 127.11 100.873 111.874 90.8722C99.3082 82.6191 84.0135 82.1891 70.9287 89.2544C61.5933 94.3059 51.7797 103.829 49.0508 121.775Z" fill="url(#paint2_linear_148_37)"/>
<path d="M350.818 118.71C350.818 118.71 389.268 71.6559 433.514 121.775C433.514 121.775 430.015 104.976 415.531 93.6232C403.554 84.2438 388.329 82.4279 374.813 88.2782C365.145 92.4628 354.737 101.064 350.818 118.71Z" fill="url(#paint3_linear_148_37)"/>
<path d="M290.111 42.0775C290.111 42.0775 277.224 36.1795 266.641 38.7735C266.641 38.7735 266.408 43.2517 268.577 45.1631C268.577 45.1631 279.627 41.5792 290.111 42.0775Z" fill="url(#paint4_linear_148_37)"/>
<defs>
<linearGradient id="paint0_linear_148_37" x1="-130.388" y1="53.4605" x2="768.186" y2="53.4605" gradientUnits="userSpaceOnUse">
<stop offset="0.115517" stop-color="#DBD6D6"/>
<stop offset="0.476882" stop-color="#999999"/>
<stop offset="0.651475" stop-color="#747474"/>
<stop offset="0.653505" stop-color="#DBD6D6"/>
</linearGradient>
<linearGradient id="paint1_linear_148_37" x1="308.825" y1="42.1414" x2="340.51" y2="42.1414" gradientUnits="userSpaceOnUse">
<stop offset="0.115517" stop-color="#DBD6D6"/>
<stop offset="0.476882" stop-color="#999999"/>
<stop offset="0.651475" stop-color="#747474"/>
<stop offset="0.653505" stop-color="#DBD6D6"/>
</linearGradient>
<linearGradient id="paint2_linear_148_37" x1="26.3607" y1="103.034" x2="182.731" y2="103.034" gradientUnits="userSpaceOnUse">
<stop offset="0.115517" stop-color="#DBD6D6"/>
<stop offset="0.476882" stop-color="#999999"/>
<stop offset="0.651475" stop-color="#747474"/>
<stop offset="0.653505" stop-color="#DBD6D6"/>
</linearGradient>
<linearGradient id="paint3_linear_148_37" x1="328.115" y1="103.35" x2="484.574" y2="103.35" gradientUnits="userSpaceOnUse">
<stop offset="0.115517" stop-color="#DBD6D6"/>
<stop offset="0.476882" stop-color="#999999"/>
<stop offset="0.651475" stop-color="#747474"/>
<stop offset="0.653505" stop-color="#DBD6D6"/>
</linearGradient>
<linearGradient id="paint4_linear_148_37" x1="260.188" y1="41.6387" x2="304.607" y2="41.6387" gradientUnits="userSpaceOnUse">
<stop offset="0.115517" stop-color="#DBD6D6"/>
<stop offset="0.476882" stop-color="#999999"/>
<stop offset="0.651475" stop-color="#747474"/>
<stop offset="0.653505" stop-color="#DBD6D6"/>
</linearGradient>
</defs>
</svg>
