<svg width="420" height="220" viewBox="0 0 420 220" xmlns="http://www.w3.org/2000/svg" role="img" aria-label="Location map">
  <defs>
    <linearGradient id="bg" x1="0" y1="0" x2="1" y2="1">
      <stop offset="0" stop-color="#DDE8F8"/>
      <stop offset="1" stop-color="#C6D8EF"/>
    </linearGradient>
  </defs>
  <rect width="420" height="220" rx="14" fill="url(#bg)"/>
  <g stroke="#AEC3DE" stroke-width="2" opacity="0.85">
    <path d="M20 30h380"/>
    <path d="M20 70h380"/>
    <path d="M20 110h380"/>
    <path d="M20 150h380"/>
    <path d="M20 190h380"/>
    <path d="M40 20v180"/>
    <path d="M120 20v180"/>
    <path d="M200 20v180"/>
    <path d="M280 20v180"/>
    <path d="M360 20v180"/>
  </g>
  <polyline points="48,162 120,128 178,138 232,94 278,120 338,82" fill="none" stroke="#9277DD" stroke-width="4" stroke-linecap="round" stroke-linejoin="round"/>
  <circle cx="232" cy="94" r="7" fill="#00B67A"/>
  <circle cx="278" cy="120" r="7" fill="#F35D6A"/>
  <rect x="166" y="56" width="74" height="22" rx="11" fill="#FFFFFF"/>
  <text x="203" y="71" text-anchor="middle" font-family="Arial, sans-serif" font-size="10" fill="#4B5563">Bhinder HQ</text>
</svg>