<svg width="1200" height="500" viewBox="0 0 1200 500" xmlns="http://www.w3.org/2000/svg" role="img" aria-label="World map dots">
  <defs>
    <pattern id="dot" width="8" height="8" patternUnits="userSpaceOnUse">
      <circle cx="2" cy="2" r="1.3" fill="#2E5F86" />
    </pattern>
    <mask id="fade">
      <rect width="1200" height="500" fill="url(#grad)"/>
      <linearGradient id="grad" x1="0" y1="0" x2="1" y2="0">
        <stop offset="0" stop-color="white" stop-opacity="0.05"/>
        <stop offset="0.25" stop-color="white" stop-opacity="0.9"/>
        <stop offset="0.75" stop-color="white" stop-opacity="0.9"/>
        <stop offset="1" stop-color="white" stop-opacity="0.05"/>
      </linearGradient>
    </mask>
  </defs>
  <path d="M120 210l80-60 90-20 90 10 90 50-20 40-120 20-130 10z" fill="url(#dot)" opacity="0.65"/>
  <path d="M520 180l70-40 120-10 90 20 100 40-40 70-120 30-170-20z" fill="url(#dot)" opacity="0.65"/>
  <path d="M830 240l80-40 140 20 60 60-30 40-140 10-100-30z" fill="url(#dot)" opacity="0.65"/>
  <path d="M640 300l90 0 50 60-40 60-120-20 20-60z" fill="url(#dot)" opacity="0.65"/>
</svg>